<?xml version="1.0" encoding="UTF-8" standalone="no"?>
<!DOCTYPE svg PUBLIC "-//W3C//DTD SVG 1.1//EN"
 "http://www.w3.org/Graphics/SVG/1.1/DTD/svg11.dtd">
<!-- Generated by graphviz version 12.2.1 (0)
 -->
<!-- Title: motion_tree Pages: 1 -->
<svg width="1502pt" height="741pt"
 viewBox="0.00 0.00 1501.63 741.30" xmlns="http://www.w3.org/2000/svg" xmlns:xlink="http://www.w3.org/1999/xlink">
<g id="graph0" class="graph" transform="scale(1 1) rotate(0) translate(4 737.3)">
<title>motion_tree</title>
<polygon fill="white" stroke="none" points="-4,4 -4,-737.3 1497.63,-737.3 1497.63,4 -4,4"/>
<!-- N1 -->
<g id="node1" class="node">
<title>N1</title>
<path fill="none" stroke="black" d="M241.03,-733.3C241.03,-733.3 12,-733.3 12,-733.3 6,-733.3 0,-727.3 0,-721.3 0,-721.3 0,-709.3 0,-709.3 0,-703.3 6,-697.3 12,-697.3 12,-697.3 241.03,-697.3 241.03,-697.3 247.03,-697.3 253.03,-703.3 253.03,-709.3 253.03,-709.3 253.03,-721.3 253.03,-721.3 253.03,-727.3 247.03,-733.3 241.03,-733.3"/>
<text text-anchor="middle" x="126.52" y="-712" font-family="Times New Roman,serif" font-size="11.00">Node 1: Path/Goal configuration present or inferable?</text>
</g>
<!-- A -->
<g id="node2" class="node">
<title>A</title>
<ellipse fill="lightgray" stroke="black" cx="109.52" cy="-631.3" rx="62.64" ry="18"/>
<text text-anchor="middle" x="109.52" y="-628" font-family="Times New Roman,serif" font-size="11.00">Exit A: Not motion</text>
</g>
<!-- N1&#45;&gt;A -->
<g id="edge1" class="edge">
<title>N1&#45;&gt;A</title>
<path fill="none" stroke="black" d="M122.91,-696.91C120.72,-686.36 117.88,-672.66 115.38,-660.58"/>
<polygon fill="black" stroke="black" points="118.88,-660.23 113.42,-651.14 112.03,-661.65 118.88,-660.23"/>
<text text-anchor="middle" x="125.14" y="-670.3" font-family="Times New Roman,serif" font-size="10.00">No</text>
</g>
<!-- N2 -->
<g id="node3" class="node">
<title>N2</title>
<path fill="none" stroke="black" d="M491.26,-649.3C491.26,-649.3 201.77,-649.3 201.77,-649.3 195.77,-649.3 189.77,-643.3 189.77,-637.3 189.77,-637.3 189.77,-625.3 189.77,-625.3 189.77,-619.3 195.77,-613.3 201.77,-613.3 201.77,-613.3 491.26,-613.3 491.26,-613.3 497.26,-613.3 503.26,-619.3 503.26,-625.3 503.26,-625.3 503.26,-637.3 503.26,-637.3 503.26,-643.3 497.26,-649.3 491.26,-649.3"/>
<text text-anchor="middle" x="346.52" y="-628" font-family="Times New Roman,serif" font-size="11.00">Node 2: Actual displacement of a Figure relative to external frame?</text>
</g>
<!-- N1&#45;&gt;N2 -->
<g id="edge2" class="edge">
<title>N1&#45;&gt;N2</title>
<path fill="none" stroke="black" d="M173.44,-696.81C207.32,-684.18 253.27,-667.05 289.3,-653.62"/>
<polygon fill="black" stroke="black" points="290.1,-657.06 298.24,-650.29 287.65,-650.5 290.1,-657.06"/>
<text text-anchor="middle" x="257.46" y="-670.3" font-family="Times New Roman,serif" font-size="10.00">Yes</text>
</g>
<!-- B -->
<g id="node4" class="node">
<title>B</title>
<ellipse fill="lightblue" stroke="black" cx="276.52" cy="-547.3" rx="80.79" ry="18"/>
<text text-anchor="middle" x="276.52" y="-544" font-family="Times New Roman,serif" font-size="11.00">Exit B: FACTIVE motion</text>
</g>
<!-- N2&#45;&gt;B -->
<g id="edge3" class="edge">
<title>N2&#45;&gt;B</title>
<path fill="none" stroke="black" d="M331.67,-612.91C322.05,-601.63 309.34,-586.75 298.55,-574.11"/>
<polygon fill="black" stroke="black" points="301.24,-571.87 292.08,-566.53 295.91,-576.41 301.24,-571.87"/>
<text text-anchor="middle" x="323.48" y="-586.3" font-family="Times New Roman,serif" font-size="10.00">Yes</text>
</g>
<!-- N3 -->
<g id="node5" class="node">
<title>N3</title>
<path fill="none" stroke="black" d="M643.49,-565.3C643.49,-565.3 387.54,-565.3 387.54,-565.3 381.54,-565.3 375.54,-559.3 375.54,-553.3 375.54,-553.3 375.54,-541.3 375.54,-541.3 375.54,-535.3 381.54,-529.3 387.54,-529.3 387.54,-529.3 643.49,-529.3 643.49,-529.3 649.49,-529.3 655.49,-535.3 655.49,-541.3 655.49,-541.3 655.49,-553.3 655.49,-553.3 655.49,-559.3 649.49,-565.3 643.49,-565.3"/>
<text text-anchor="middle" x="515.52" y="-544" font-family="Times New Roman,serif" font-size="11.00">Node 3: Dynamic scanning / imagined motion in cognition?</text>
</g>
<!-- N2&#45;&gt;N3 -->
<g id="edge4" class="edge">
<title>N2&#45;&gt;N3</title>
<path fill="none" stroke="black" d="M382.36,-612.91C407.79,-600.57 442.14,-583.9 469.58,-570.59"/>
<polygon fill="black" stroke="black" points="470.9,-573.84 478.37,-566.32 467.84,-567.54 470.9,-573.84"/>
<text text-anchor="middle" x="447.25" y="-586.3" font-family="Times New Roman,serif" font-size="10.00">No</text>
</g>
<!-- C -->
<g id="node6" class="node">
<title>C</title>
<ellipse fill="lightgray" stroke="black" cx="442.52" cy="-456.97" rx="125.98" ry="24.32"/>
<text text-anchor="middle" x="442.52" y="-460.27" font-family="Times New Roman,serif" font-size="11.00">Exit C: Not motion</text>
<text text-anchor="middle" x="442.52" y="-447.07" font-family="Times New Roman,serif" font-size="11.00">(change&#45;of&#45;state / abstract metaphor)</text>
</g>
<!-- N3&#45;&gt;C -->
<g id="edge5" class="edge">
<title>N3&#45;&gt;C</title>
<path fill="none" stroke="black" d="M501.09,-528.85C491.98,-517.82 479.92,-503.23 469.11,-490.16"/>
<polygon fill="black" stroke="black" points="471.92,-488.05 462.85,-482.58 466.52,-492.51 471.92,-488.05"/>
<text text-anchor="middle" x="491.67" y="-502.3" font-family="Times New Roman,serif" font-size="10.00">No</text>
</g>
<!-- N4 -->
<g id="node8" class="node">
<title>N4</title>
<path fill="none" stroke="black" d="M796.15,-474.97C796.15,-474.97 598.88,-474.97 598.88,-474.97 592.88,-474.97 586.88,-468.97 586.88,-462.97 586.88,-462.97 586.88,-450.97 586.88,-450.97 586.88,-444.97 592.88,-438.97 598.88,-438.97 598.88,-438.97 796.15,-438.97 796.15,-438.97 802.15,-438.97 808.15,-444.97 808.15,-450.97 808.15,-450.97 808.15,-462.97 808.15,-462.97 808.15,-468.97 802.15,-474.97 796.15,-474.97"/>
<text text-anchor="middle" x="697.52" y="-460.27" font-family="Times New Roman,serif" font-size="11.00">Subtype: Stationary extended entity traversed?</text>
<text text-anchor="middle" x="697.52" y="-447.07" font-family="Times New Roman,serif" font-size="11.00">(road/border/river/wall...)</text>
</g>
<!-- N3&#45;&gt;N4 -->
<g id="edge6" class="edge">
<title>N3&#45;&gt;N4</title>
<path fill="none" stroke="black" d="M551.47,-528.85C580.14,-514.94 620.48,-495.36 651.5,-480.3"/>
<polygon fill="black" stroke="black" points="652.8,-483.56 660.27,-476.05 649.75,-477.27 652.8,-483.56"/>
<text text-anchor="middle" x="619.75" y="-502.3" font-family="Times New Roman,serif" font-size="10.00">Yes</text>
</g>
<!-- D -->
<g id="node7" class="node">
<title>D</title>
<ellipse fill="lightyellow" stroke="black" cx="1160.52" cy="-24.32" rx="109.19" ry="18"/>
<text text-anchor="middle" x="1160.52" y="-21.02" font-family="Times New Roman,serif" font-size="11.00">Exit D: FICTIVE motion &#45;&gt; subtype</text>
</g>
<!-- S1 -->
<g id="node9" class="node">
<title>S1</title>
<ellipse fill="lightyellow" stroke="black" cx="639.52" cy="-366.65" rx="87.01" ry="18"/>
<text text-anchor="middle" x="639.52" y="-363.35" font-family="Times New Roman,serif" font-size="11.00">FICTIVE: Coextension path</text>
</g>
<!-- N4&#45;&gt;S1 -->
<g id="edge7" class="edge">
<title>N4&#45;&gt;S1</title>
<path fill="none" stroke="black" d="M686.06,-438.52C677.74,-425.86 666.34,-408.5 656.91,-394.14"/>
<polygon fill="black" stroke="black" points="660,-392.47 651.58,-386.03 654.15,-396.31 660,-392.47"/>
<text text-anchor="middle" x="678.03" y="-405.65" font-family="Times New Roman,serif" font-size="10.00">Yes</text>
</g>
<!-- N5 -->
<g id="node10" class="node">
<title>N5</title>
<path fill="none" stroke="black" d="M910.62,-384.65C910.62,-384.65 756.41,-384.65 756.41,-384.65 750.41,-384.65 744.41,-378.65 744.41,-372.65 744.41,-372.65 744.41,-360.65 744.41,-360.65 744.41,-354.65 750.41,-348.65 756.41,-348.65 756.41,-348.65 910.62,-348.65 910.62,-348.65 916.62,-348.65 922.62,-354.65 922.62,-360.65 922.62,-360.65 922.62,-372.65 922.62,-372.65 922.62,-378.65 916.62,-384.65 910.62,-384.65"/>
<text text-anchor="middle" x="833.52" y="-369.95" font-family="Times New Roman,serif" font-size="11.00">Subtype: Orientation implies vector?</text>
<text text-anchor="middle" x="833.52" y="-356.75" font-family="Times New Roman,serif" font-size="11.00">(face/point toward...)</text>
</g>
<!-- N4&#45;&gt;N5 -->
<g id="edge8" class="edge">
<title>N4&#45;&gt;N5</title>
<path fill="none" stroke="black" d="M724.39,-438.52C745.25,-424.97 774.38,-406.05 797.3,-391.17"/>
<polygon fill="black" stroke="black" points="798.95,-394.27 805.43,-385.89 795.14,-388.4 798.95,-394.27"/>
<text text-anchor="middle" x="783.81" y="-405.65" font-family="Times New Roman,serif" font-size="10.00">No</text>
</g>
<!-- S2 -->
<g id="node11" class="node">
<title>S2</title>
<ellipse fill="lightyellow" stroke="black" cx="776.52" cy="-282.65" rx="83.98" ry="18"/>
<text text-anchor="middle" x="776.52" y="-279.35" font-family="Times New Roman,serif" font-size="11.00">FICTIVE: Orientation path</text>
</g>
<!-- N5&#45;&gt;S2 -->
<g id="edge9" class="edge">
<title>N5&#45;&gt;S2</title>
<path fill="none" stroke="black" d="M821.43,-348.26C813.67,-337.09 803.44,-322.39 794.71,-309.83"/>
<polygon fill="black" stroke="black" points="797.84,-308.19 789.26,-301.98 792.09,-312.18 797.84,-308.19"/>
<text text-anchor="middle" x="816.2" y="-321.65" font-family="Times New Roman,serif" font-size="10.00">Yes</text>
</g>
<!-- N6 -->
<g id="node12" class="node">
<title>N6</title>
<path fill="none" stroke="black" d="M1036.05,-300.65C1036.05,-300.65 890.98,-300.65 890.98,-300.65 884.98,-300.65 878.98,-294.65 878.98,-288.65 878.98,-288.65 878.98,-276.65 878.98,-276.65 878.98,-270.65 884.98,-264.65 890.98,-264.65 890.98,-264.65 1036.05,-264.65 1036.05,-264.65 1042.05,-264.65 1048.05,-270.65 1048.05,-276.65 1048.05,-276.65 1048.05,-288.65 1048.05,-288.65 1048.05,-294.65 1042.05,-300.65 1036.05,-300.65"/>
<text text-anchor="middle" x="963.52" y="-285.95" font-family="Times New Roman,serif" font-size="11.00">Subtype: Emanation/transmission?</text>
<text text-anchor="middle" x="963.52" y="-272.75" font-family="Times New Roman,serif" font-size="11.00">(sound/light/gaze/odor)</text>
</g>
<!-- N5&#45;&gt;N6 -->
<g id="edge10" class="edge">
<title>N5&#45;&gt;N6</title>
<path fill="none" stroke="black" d="M861.09,-348.26C880.13,-336.25 905.68,-320.13 926.5,-307"/>
<polygon fill="black" stroke="black" points="928.12,-310.12 934.71,-301.82 924.38,-304.2 928.12,-310.12"/>
<text text-anchor="middle" x="912.41" y="-321.65" font-family="Times New Roman,serif" font-size="10.00">No</text>
</g>
<!-- S3 -->
<g id="node13" class="node">
<title>S3</title>
<ellipse fill="lightyellow" stroke="black" cx="895.52" cy="-198.65" rx="112.89" ry="18"/>
<text text-anchor="middle" x="895.52" y="-195.35" font-family="Times New Roman,serif" font-size="11.00">FICTIVE: Emanation (radiation) path</text>
</g>
<!-- N6&#45;&gt;S3 -->
<g id="edge11" class="edge">
<title>N6&#45;&gt;S3</title>
<path fill="none" stroke="black" d="M949.09,-264.26C939.75,-252.99 927.4,-238.1 916.92,-225.46"/>
<polygon fill="black" stroke="black" points="919.73,-223.36 910.65,-217.9 914.34,-227.83 919.73,-223.36"/>
<text text-anchor="middle" x="941.36" y="-237.65" font-family="Times New Roman,serif" font-size="10.00">Yes</text>
</g>
<!-- N7 -->
<g id="node14" class="node">
<title>N7</title>
<path fill="none" stroke="black" d="M1220.67,-216.65C1220.67,-216.65 1038.36,-216.65 1038.36,-216.65 1032.36,-216.65 1026.36,-210.65 1026.36,-204.65 1026.36,-204.65 1026.36,-192.65 1026.36,-192.65 1026.36,-186.65 1032.36,-180.65 1038.36,-180.65 1038.36,-180.65 1220.67,-180.65 1220.67,-180.65 1226.67,-180.65 1232.67,-186.65 1232.67,-192.65 1232.67,-192.65 1232.67,-204.65 1232.67,-204.65 1232.67,-210.65 1226.67,-216.65 1220.67,-216.65"/>
<text text-anchor="middle" x="1129.52" y="-195.35" font-family="Times New Roman,serif" font-size="11.00">Subtype: Observer&#45;based apparent motion?</text>
</g>
<!-- N6&#45;&gt;N7 -->
<g id="edge12" class="edge">
<title>N6&#45;&gt;N7</title>
<path fill="none" stroke="black" d="M998.72,-264.26C1023.7,-251.92 1057.44,-235.25 1084.4,-221.94"/>
<polygon fill="black" stroke="black" points="1085.59,-225.25 1093.01,-217.68 1082.49,-218.98 1085.59,-225.25"/>
<text text-anchor="middle" x="1062.57" y="-237.65" font-family="Times New Roman,serif" font-size="10.00">No</text>
</g>
<!-- S4 -->
<g id="node15" class="node">
<title>S4</title>
<ellipse fill="lightyellow" stroke="black" cx="1067.52" cy="-114.65" rx="82.28" ry="18"/>
<text text-anchor="middle" x="1067.52" y="-111.35" font-family="Times New Roman,serif" font-size="11.00">FICTIVE: Observer&#45;based</text>
</g>
<!-- N7&#45;&gt;S4 -->
<g id="edge13" class="edge">
<title>N7&#45;&gt;S4</title>
<path fill="none" stroke="black" d="M1116.37,-180.26C1107.93,-169.09 1096.81,-154.39 1087.31,-141.83"/>
<polygon fill="black" stroke="black" points="1090.17,-139.81 1081.35,-133.94 1084.59,-144.03 1090.17,-139.81"/>
<text text-anchor="middle" x="1110" y="-153.65" font-family="Times New Roman,serif" font-size="10.00">Yes</text>
</g>
<!-- N8 -->
<g id="node16" class="node">
<title>N8</title>
<path fill="none" stroke="black" d="M1371.11,-132.65C1371.11,-132.65 1179.92,-132.65 1179.92,-132.65 1173.92,-132.65 1167.92,-126.65 1167.92,-120.65 1167.92,-120.65 1167.92,-108.65 1167.92,-108.65 1167.92,-102.65 1173.92,-96.65 1179.92,-96.65 1179.92,-96.65 1371.11,-96.65 1371.11,-96.65 1377.11,-96.65 1383.11,-102.65 1383.11,-108.65 1383.11,-108.65 1383.11,-120.65 1383.11,-120.65 1383.11,-126.65 1377.11,-132.65 1371.11,-132.65"/>
<text text-anchor="middle" x="1275.52" y="-111.35" font-family="Times New Roman,serif" font-size="11.00">Subtype: Abstract Figure, no spatial support?</text>
</g>
<!-- N7&#45;&gt;N8 -->
<g id="edge14" class="edge">
<title>N7&#45;&gt;N8</title>
<path fill="none" stroke="black" d="M1160.48,-180.26C1182.06,-168.14 1211.08,-151.84 1234.57,-138.64"/>
<polygon fill="black" stroke="black" points="1236.27,-141.7 1243.28,-133.76 1232.85,-135.6 1236.27,-141.7"/>
<text text-anchor="middle" x="1217.37" y="-153.65" font-family="Times New Roman,serif" font-size="10.00">No</text>
</g>
<!-- N8&#45;&gt;D -->
<g id="edge16" class="edge">
<title>N8&#45;&gt;D</title>
<path fill="none" stroke="black" d="M1252.8,-96.2C1235.36,-82.81 1211.08,-64.16 1191.81,-49.36"/>
<polygon fill="black" stroke="black" points="1194.06,-46.68 1184,-43.36 1189.8,-52.23 1194.06,-46.68"/>
<text text-anchor="middle" x="1248.59" y="-69.65" font-family="Times New Roman,serif" font-size="10.00">No / other</text>
</g>
<!-- S5 -->
<g id="node17" class="node">
<title>S5</title>
<ellipse fill="wheat" stroke="black" cx="1390.52" cy="-24.32" rx="103.11" ry="24.32"/>
<text text-anchor="middle" x="1390.52" y="-27.62" font-family="Times New Roman,serif" font-size="11.00">Metaphorical motion</text>
<text text-anchor="middle" x="1390.52" y="-14.42" font-family="Times New Roman,serif" font-size="11.00">(or cline: high metaphoricity)</text>
</g>
<!-- N8&#45;&gt;S5 -->
<g id="edge15" class="edge">
<title>N8&#45;&gt;S5</title>
<path fill="none" stroke="black" d="M1298.24,-96.2C1313.51,-84.47 1334.03,-68.71 1351.84,-55.03"/>
<polygon fill="black" stroke="black" points="1353.86,-57.89 1359.66,-49.02 1349.6,-52.34 1353.86,-57.89"/>
<text text-anchor="middle" x="1344.24" y="-69.65" font-family="Times New Roman,serif" font-size="10.00">Yes</text>
</g>
</g>
</svg>
